<?xml version="1.0" standalone="no"?>
<!DOCTYPE svg PUBLIC "-//W3C//DTD SVG 20010904//EN"
 "http://www.w3.org/TR/2001/REC-SVG-20010904/DTD/svg10.dtd">
<svg version="1.0" xmlns="http://www.w3.org/2000/svg"
 width="300.000000pt" height="150.000000pt" viewBox="0 0 300.000000 150.000000"
 preserveAspectRatio="xMidYMid meet">
<metadata>
Created by potrace 1.10, written by Peter Selinger 2001-2011
</metadata>
<g transform="translate(0.000000,150.000000) scale(0.100000,-0.100000)"
fill="#000000" stroke="none">
<path d="M643 940 c-13 -5 -24 -14 -24 -20 -1 -5 -2 -16 -3 -22 0 -7 -16 -14
-34 -15 -19 -1 -36 -4 -39 -7 -4 -3 -12 -1 -20 5 -7 6 -13 10 -13 8 -7 -67 -3
-149 7 -149 8 0 13 21 15 58 l3 57 40 3 40 3 -3 -61 c-3 -51 -1 -60 13 -60 14
0 16 9 13 60 -3 57 -2 60 20 60 15 0 22 5 19 13 -2 6 -10 12 -18 12 -8 0 -15
4 -16 8 -7 18 -1 27 17 27 11 0 20 7 20 15 0 17 -5 18 -37 5z"/>
<path d="M1290 904 c0 -44 -1 -45 -21 -31 -29 21 -59 9 -75 -29 -25 -60 20
-119 72 -95 15 6 24 7 24 1 0 -6 5 -10 10 -10 6 0 10 42 10 105 0 63 -4 105
-10 105 -5 0 -10 -21 -10 -46z m-11 -58 c7 -8 11 -27 9 -43 -3 -25 -7 -28 -38
-28 -38 0 -47 16 -36 61 7 28 46 33 65 10z"/>
<path d="M151 840 c-2 -87 0 -100 15 -100 14 0 16 11 13 84 -2 46 -2 83 1 81
3 -2 23 -40 45 -84 27 -57 44 -81 57 -81 16 0 18 10 18 100 0 86 -2 100 -16
100 -15 0 -16 -11 -12 -85 3 -47 5 -85 3 -85 -1 0 -22 38 -46 85 -61 119 -76
116 -78 -15z"/>
<path d="M700 840 c0 -85 2 -100 16 -100 12 0 15 9 12 43 -3 36 0 42 17 43 26
0 50 -20 65 -57 7 -16 19 -29 26 -29 12 0 12 6 -2 33 -9 17 -23 39 -31 48 -12
14 -12 17 2 22 9 4 15 19 15 36 0 38 -31 61 -82 61 l-38 0 0 -100z m93 60 c5
-5 6 -17 2 -29 -5 -16 -15 -21 -41 -21 -31 0 -34 3 -32 28 1 15 3 30 5 35 5 8
53 -1 66 -13z"/>
<path d="M1360 840 c0 -73 3 -100 13 -100 9 0 11 22 8 86 -4 99 7 104 34 14
10 -33 24 -60 31 -60 11 0 54 95 54 120 0 6 3 10 8 10 4 0 5 -38 3 -85 -2 -67
0 -85 10 -85 11 0 13 21 11 101 -3 86 -6 100 -19 97 -10 -2 -25 -27 -37 -65
-12 -35 -23 -63 -26 -63 -3 0 -16 29 -28 65 -18 49 -28 65 -43 65 -17 0 -19
-8 -19 -100z"/>
<path d="M373 879 c-36 -13 -27 -24 19 -24 24 0 43 -5 45 -12 3 -9 -7 -13 -34
-13 -45 0 -63 -14 -63 -47 0 -32 39 -50 71 -33 17 10 24 10 27 1 2 -6 8 -11
13 -11 11 0 12 100 1 117 -12 19 -55 31 -79 22z m67 -78 c0 -21 -50 -43 -70
-31 -24 15 -3 40 35 40 19 0 35 -4 35 -9z"/>
<path d="M904 875 c-36 -15 -49 -50 -34 -89 12 -32 49 -48 90 -40 47 10 37 30
-13 26 -30 -3 -47 1 -56 12 -12 14 -7 16 43 16 51 0 56 2 56 23 0 47 -40 72
-86 52z m64 -36 c2 -12 -7 -16 -38 -17 -38 -2 -53 12 -33 32 13 13 68 2 71
-15z"/>
<path d="M1063 879 c-36 -13 -27 -24 19 -24 24 0 43 -5 45 -12 3 -9 -7 -13
-34 -13 -45 0 -63 -14 -63 -47 0 -32 39 -50 71 -33 17 10 24 10 27 1 2 -6 8
-11 13 -11 11 0 12 100 1 117 -12 19 -55 31 -79 22z m67 -77 c0 -17 -25 -32
-52 -32 -26 0 -37 17 -21 33 9 10 73 9 73 -1z"/>
<path d="M1618 878 c-35 -12 -50 -54 -33 -95 14 -33 42 -45 86 -36 46 9 34 28
-18 28 -28 0 -48 5 -50 13 -3 9 11 12 52 12 l57 0 -7 27 c-12 51 -40 67 -87
51z m61 -31 c15 -19 4 -27 -41 -27 -41 0 -41 0 -32 24 8 20 57 21 73 3z"/>
<path d="M1862 875 c-77 -33 -29 -150 54 -129 38 10 28 23 -18 26 -43 3 -43 3
-43 43 0 40 0 40 43 43 23 2 42 7 42 11 0 15 -48 18 -78 6z"/>
<path d="M2130 815 c0 -57 3 -75 14 -75 10 0 12 11 8 45 -5 51 8 75 44 75 28
0 40 -32 30 -85 -5 -27 -4 -35 8 -35 11 0 16 14 18 58 3 56 3 57 33 57 30 0
30 -1 33 -57 2 -32 7 -58 13 -58 6 0 9 25 7 61 -2 49 -7 64 -23 75 -17 11 -25
11 -48 -1 -15 -8 -29 -10 -32 -4 -9 13 -59 11 -73 -3 -9 -9 -12 -8 -12 5 0 9
-4 17 -10 17 -6 0 -10 -32 -10 -75z"/>
<path d="M1993 872 c-21 -13 -33 -60 -23 -87 17 -44 91 -53 115 -15 11 18 8
79 -5 95 -13 16 -67 20 -87 7z m75 -54 c2 -27 -1 -39 -15 -46 -28 -15 -63 3
-63 32 0 45 10 57 44 54 28 -3 31 -7 34 -40z"/>
<path d="M1750 755 c0 -8 7 -15 15 -15 8 0 15 7 15 15 0 8 -7 15 -15 15 -8 0
-15 -7 -15 -15z"/>
</g>
</svg>
